<svg width="256" height="256" viewBox="0 0 256 256" fill="none" xmlns="http://www.w3.org/2000/svg">
  <defs>
    <linearGradient id="bg" x1="36" y1="28" x2="215" y2="228" gradientUnits="userSpaceOnUse">
      <stop stop-color="#F07F9F"/>
      <stop offset="0.52" stop-color="#E38B83"/>
      <stop offset="1" stop-color="#5FA8E8"/>
    </linearGradient>
    <linearGradient id="card" x1="79" y1="62" x2="187" y2="196" gradientUnits="userSpaceOnUse">
      <stop stop-color="white" stop-opacity="0.96"/>
      <stop offset="1" stop-color="#FFF7FA" stop-opacity="0.84"/>
    </linearGradient>
    <linearGradient id="trend" x1="86" y1="165" x2="177" y2="111" gradientUnits="userSpaceOnUse">
      <stop stop-color="#EF7B9D"/>
      <stop offset="1" stop-color="#4E9BE8"/>
    </linearGradient>
  </defs>
  <rect x="20" y="20" width="216" height="216" rx="56" fill="url(#bg)"/>
  <rect x="34" y="34" width="188" height="188" rx="46" fill="white" fill-opacity="0.08"/>
  <rect x="65" y="56" width="126" height="144" rx="28" fill="url(#card)"/>
  <rect x="79" y="74" width="98" height="18" rx="9" fill="#FCE1EA"/>
  <circle cx="94" cy="121" r="7" fill="#F091AE"/>
  <rect x="109" y="114" width="54" height="14" rx="7" fill="#E6EDF8"/>
  <circle cx="94" cy="152" r="7" fill="#79B1EA"/>
  <rect x="109" y="145" width="40" height="14" rx="7" fill="#E6EDF8"/>
  <path d="M88 170L118 145L138 157L171 121" stroke="url(#trend)" stroke-width="13" stroke-linecap="round" stroke-linejoin="round"/>
  <path d="M169 122H188V141" stroke="#4E9BE8" stroke-width="13" stroke-linecap="round" stroke-linejoin="round"/>
</svg>